<?xml version="1.0" encoding="UTF-8"?>
<svg id="Layer_1" data-name="Layer 1" xmlns="http://www.w3.org/2000/svg" version="1.1" viewBox="0 0 126 39.4">
  <defs>
    <style>
      .cls-1 {
        fill-rule: evenodd;
      }

      .cls-1, .cls-2, .cls-3 {
        stroke-width: 0px;
      }

      .cls-1, .cls-3 {
        fill: #0a0a0a;
      }

      .cls-2 {
        fill: #ff7a00;
      }
    </style>
  </defs>
  <rect class="cls-2" y="4.4" width="34.4" height="30.6" rx="5.3" ry="5.3"/>
  <path class="cls-3" d="M9.3,28.1h-4.4V11.3h4.4v1.9h-2.2v12.9h2.2v1.9Z"/>
  <path class="cls-1" d="M24.1,19.7c-.7.7-.8,2.9-.8,2.9h-11.6s-.4-2.2-1.1-2.9l.7-.8-2.1-3.7,1.6-.7.2,1.5,1.2-.8.6,1.5-1.1.2c1.8,1.8,4,1.8,4.9-.9l-1.2.2v-1.6l1.2.2-.3-1.2h2.2s-.3,1.1-.3,1.1l1.3-.3v1.7s-1.3-.2-1.3-.2c.9,2.7,2.8,2.8,4.9.9l-1.1-.2.6-1.5,1.2.8v-1.7c0,0,1.6.7,1.6.7l-1.8,4,.8.7ZM23.5,23.6c.6.9.3,2-1.3,2-2.2,0-7.7,0-9.8,0s-1.6-1.6-.8-2.1l11.9.2Z"/>
  <path class="cls-3" d="M25.1,26.2h2.2v-12.9h-2.2v-1.9h4.4v16.7h-4.4v-1.9Z"/>
  <path class="cls-2" d="M117.5,29.4h-4.6V13.1h-7.6v-4.1h19.8v4.1h-7.6v16.4Z"/>
  <path class="cls-2" d="M89.3,29.4h-4.6V8.9h4.6v8.1h5.1l5.4-8.1h5.5l-7.1,10.1,7,10.4h-5.5l-5.3-7.9h-5.2v7.9Z"/>
  <path class="cls-2" d="M67.6,29.7h-4.6V9.2h11.3c5,0,7.9,2.2,7.9,6.1s-1.9,5.3-5.8,5.7v.2c1.8.5,2.5,1.5,3.3,2.9l3,5.5h-5.3l-2.8-5.3c-.8-1.6-1.6-2.1-4-2.1h-3v7.4ZM67.6,13.3v5.5h6.7c2.2,0,3.2-.6,3.2-2.8s-1-2.7-3.2-2.7h-6.7Z"/>
  <path class="cls-2" d="M56.1,29.4h-12.9V8.9h12.3c4.2,0,6.5,1.8,6.5,5s-1.3,4.4-4.8,4.6v.3c3.8.3,5.6,2.2,5.6,4.9s-2.1,5.7-6.7,5.7ZM47.8,13.1v4h7.2c1.7,0,2.4-.6,2.4-2s-.7-2-2.4-2h-7.1ZM47.8,20.9v4.4h7.7c1.9,0,2.6-.6,2.6-2.2s-.8-2.2-2.6-2.2h-7.7Z"/>
</svg>