<svg xmlns="http://www.w3.org/2000/svg" viewBox="0 0 1547.07138 322.5699"><defs><style>.cls-1{fill:#fff;}.cls-2{fill:#644aee;}.cls-3{fill:#b6b6b6;}.cls-4{fill:#eee;}.cls-5{fill:#634aee;}</style></defs><g id="Layer_2" data-name="Layer 2"><g id="Layer_1-2" data-name="Layer 1"><path class="cls-1" d="M558.96969,138.32378H531.17142c-.40142-2.59241-.76555-5.16984-1.20492-7.73442a68.12813,68.12813,0,0,0-4.55629-15.60461c-6.05106-14.00047-16.38671-23.10654-31.13687-27.11677a70.63435,70.63435,0,0,0-35.34405-.68714c-16.21889,3.858-27.60867,13.71707-34.72882,28.6361a79.9653,79.9653,0,0,0-6.98945,25.42848,108.75028,108.75028,0,0,0,1.93985,37.97444c2.1391,9.00713,5.52828,17.47774,11.19973,24.90849a48.49976,48.49976,0,0,0,26.30818,17.86617,69.40231,69.40231,0,0,0,39.26668-.61081c15.55078-4.74573,25.48967-15.362,30.92154-30.44375a82.36716,82.36716,0,0,0,4.04029-18.10268c.06-.49419.15569-.984.25647-1.61067H559.1915c-.582,3.9496-1.01984,7.73288-1.7117,11.46929-2.4467,13.21347-7.26724,25.4484-15.46388,36.21111-11.04773,14.50638-25.64176,23.63607-43.31364,27.78683-17.839,4.19-35.66875,3.972-53.11835-1.86142-22.47947-7.51485-38.13174-22.69752-47.89835-44.07789a104.07718,104.07718,0,0,1-8.81016-34.8878,120.11574,120.11574,0,0,1,3.71268-42.91119c4.48568-15.94793,12.28626-29.97362,24.54057-41.31188a77.42335,77.42335,0,0,1,38.68395-19.43615c16.48413-3.16587,32.91642-2.694,48.9192,2.53766,25.7658,8.42343,42.1745,26.1374,50.24334,51.79114a112.06341,112.06341,0,0,1,3.98689,20.20435A14.09719,14.09719,0,0,1,558.96969,138.32378Z"/><path class="cls-1" d="M1061.41431,164.171a25.62687,25.62687,0,0,0-19.38584-25.59224,45.99861,45.99861,0,0,0-23.71945.1973c-11.42321,3.1437-17.92052,11.166-18.62139,22.98333-.13021,2.19514-.0187,4.4046-.0187,6.52811-2.01945.62831-24.43734.76735-27.74128.18048.1337-3.05145.026-6.19366.44506-9.26426,3.09263-22.66315,16.04866-37.09438,37.63528-43.80887a68.61308,68.61308,0,0,1,40.50676-.1948c19.95974,5.92342,32.20568,19.43782,37.46674,39.41105a76.16964,76.16964,0,0,1,2.1506,19.69344c-.03191,14.78038-.00991,29.56087-.00991,44.34131v3.28143h18.13856v24.80016a18.37807,18.37807,0,0,1-1.94727.20384c-7.99791.01311-15.99619.04546-23.99353-.02362a23.72066,23.72066,0,0,1-5.30077-.653c-7.96331-1.91662-12.649-8.03873-12.92256-16.76933a35.798,35.798,0,0,0-.41034-5.93968c-.30075.443-.631.869-.8979,1.33141-7.93115,13.74162-19.87608,21.518-35.51211,23.76329-9.97479,1.43238-19.89435,1.18227-29.52107-1.98241-14.95173-4.91529-23.3659-15.41062-25.65986-30.88878a44.00259,44.00259,0,0,1,.691-18.20045c2.79611-10.26213,9.19812-17.63156,18.58224-22.48985a58.09669,58.09669,0,0,1,20.70118-6.008c14.20462-1.5211,28.43554-2.79627,42.65481-4.18111C1056.91339,164.67652,1059.098,164.42094,1061.41431,164.171Zm.33416,22.89239c-1.95057.15643-3.71689.26267-5.4753.44476q-18.89661,1.95707-37.79,3.94563a36.89874,36.89874,0,0,0-12.30809,3.04558c-3.72718,1.79108-6.0545,4.69256-6.42026,8.84015a27.7027,27.7027,0,0,0,.1716,6.84554c1.27289,7.768,5.18446,11.80755,12.918,13.49867,7.61312,1.66475,15.08731.63014,22.369-1.71657A38.34027,38.34027,0,0,0,1061.74847,187.06336Z"/><path class="cls-1" d="M1541.76437,188.52183h-98.211a39.10328,39.10328,0,0,0,.63767,4.28349,98.70908,98.70908,0,0,0,3.316,11.4642c3.92871,9.77213,11.16765,16.04984,21.3452,18.8257a51.57517,51.57517,0,0,0,24.25427.85924c12.36244-2.549,20.32357-10.02106,24.14169-21.975.30967-.9696.58456-1.9509.85309-2.93292.26491-.96921.50078-1.94631.76432-2.97865h28.20579c-.76794,2.96619-1.38541,5.76108-2.2168,8.491a64.8904,64.8904,0,0,1-15.87177,27.2486,57.71428,57.71428,0,0,1-32.90043,16.56558,82.063,82.063,0,0,1-36.14149-2.00794c-18.01115-5.25133-30.96238-16.55238-37.99525-33.902-7.79408-19.22723-8.77644-39.09135-2.28636-58.83587,7.60994-23.15069,24.19866-36.24052,48.11135-40.21186a72.05376,72.05376,0,0,1,32.59026,1.81891c20.49411,6.06812,33.15263,19.82368,38.80558,40.21358a73.86584,73.86584,0,0,1,2.58319,18.62021C1541.824,178.72992,1541.76437,183.39385,1541.76437,188.52183ZM1513.84071,165.574a3.074,3.074,0,0,0,.169-.73437c-.10422-.84223-.19024-1.69036-.36215-2.52005-2.44793-11.82266-9.13161-19.91218-20.93443-23.31433a46.82332,46.82332,0,0,0-24.47443-.416,32.87885,32.87885,0,0,0-18.198,11.07134,28.72619,28.72619,0,0,0-6.548,15.91336Z"/><path class="cls-1" d="M1250.31118,246.79893h-27.48347c-.0642-1.02695-.18737-2.08237-.18787-3.13786q-.01674-36.311-.01459-72.622c-.00293-5.52582-.17665-11.041-1.68815-16.41544-.02294-.08164-.03416-.16648-.05535-.24869-2.36472-9.17-8.19569-14.63481-17.553-16.24893a44.23353,44.23353,0,0,0-20.942,1.15262,36.308,36.308,0,0,0-20.19573,15.50255c-4.95644,7.66632-7.35943,16.193-8.16994,25.1842-.37281,4.13658-.477,8.30811-.48968,12.46442-.05186,17.0724-.02163,34.145-.02163,51.21759v3.1374h-27.87368v-131.628h27.85716c.04214,7.71884-.005,15.46855.40261,23.36757.358-.50224.757-.98044,1.06788-1.51024,8.54088-14.55462,21.37836-22.3339,38.04294-24.15943a63.31529,63.31529,0,0,1,22.29583,1.32689c16.53281,4.09927,27.09028,14.52388,32.08475,30.67882a70.169,70.169,0,0,1,2.9934,20.59932c.0811,26.50042.03983,53.00122.03965,79.50189C1250.42033,245.46735,1250.362,245.97313,1250.31118,246.79893Z"/><path class="cls-1" d="M675.08263,115.09672h27.56416V246.76146H675.201V223.59281l-.422-.17117a8.8998,8.8998,0,0,0-.96428,1.1618c-8.91161,15.31944-22.41708,23.16494-39.9281,24.5876a60.5305,60.5305,0,0,1-26.61658-3.301c-14.1268-5.33055-22.6016-15.7815-26.64216-30.06769a78.20259,78.20259,0,0,1-2.66126-21.41894q-.00021-38.73963.00214-77.47927c.00008-.50709.051-1.01418.09543-1.84132,9.22955-.17191,18.444-.03987,27.982-.09241l0,3.20947q.00033,37.46531-.00433,74.93062a52.15761,52.15761,0,0,0,1.61009,14.1278A37.32463,37.32463,0,0,0,609.53934,212.5a17.72634,17.72634,0,0,0,10.7629,9.90058c12.40807,4.209,30.52188,2.77,42.06281-9.98336,5.9802-6.60845,9.39428-14.47744,11.16609-23.11771a80.02718,80.02718,0,0,0,1.55716-16.20031q-.02525-27.39808-.0057-54.79619C675.08263,117.30253,675.08263,116.30211,675.08263,115.09672Z"/><path class="cls-1" d="M1370.2839,192.54171h28.00034c-.16094,1.7857-.287,3.441-.46238,5.09114-1.48427,13.96129-6.96045,26.01036-17.42585,35.54905a60.90875,60.90875,0,0,1-26.84058,14.02694,73.3518,73.3518,0,0,1-41.7407-1.6215c-17.03851-5.7064-29.47812-16.83331-36.63515-33.25835-9.1136-20.91565-9.21913-42.18695.09618-63.03635,8.683-19.43425,24.14144-30.95277,44.90015-35.262a71.55845,71.55845,0,0,1,42.34221,3.54831c14.14142,5.75778,24.7735,15.30643,30.95192,29.44445,2.96105,6.776,4.15223,13.96686,4.77929,21.274a6.83579,6.83579,0,0,1-.101,1.10211h-27.82007c-.33884-1.81025-.58468-3.71942-1.068-5.56671a69.728,69.728,0,0,0-2.48446-8.2731A26.54131,26.54131,0,0,0,1348.04379,139a46.238,46.238,0,0,0-26.17835.54959,32.572,32.572,0,0,0-20.61622,18.47354c-4.2,9.29567-5.23295,19.09747-4.29665,29.154a52.381,52.381,0,0,0,3.24279,14.10393c5.21818,13.49559,15.189,20.87663,29.41329,22.74663a45.35493,45.35493,0,0,0,20.89529-1.93485,26.22475,26.22475,0,0,0,15.155-13.24966,43.53893,43.53893,0,0,0,4.10461-13.33031C1369.9129,194.5941,1370.08419,193.67885,1370.2839,192.54171Z"/><path class="cls-1" d="M876.61916,246.83339c-14.524-43.95424-28.97357-87.68319-43.50575-131.6621h27.89911q19.37315,59.10108,38.82855,118.45342l.65605.00592q19.28642-59.23783,38.59222-118.53541H966.73q-21.566,66.04885-43.01459,131.73817Z"/><path class="cls-1" d="M748.98454,246.80621H721.044c-.061-.85054-.16-1.58763-.16016-2.32475q-.011-55.04316-.0014-110.08631a31.3767,31.3767,0,0,1,1.39241-9.79165c2.20147-6.76636,7.02-10.42091,13.8698-11.58152a27.13953,27.13953,0,0,1,5.33967-.3083q35.83929,1.10729,71.67628,2.29007c.49137.01592.98037.10586,1.60725.17674v24.83969c-21.84321-.6086-43.6383-1.534-65.78332-2.184Z"/><rect class="cls-2" width="331.06515" height="322.5699" rx="0.52606"/><rect class="cls-3" x="48.83505" y="158.43989" width="235.93038" height="164.10595"/><rect class="cls-4" x="48.83505" width="235.93038" height="161.72647" rx="0.52606"/><rect class="cls-5" x="188.30416" y="183.29" width="55.8711" height="116.68498" rx="0.52606"/></g></g></svg>