<?xml version="1.0" encoding="UTF-8"?>
<svg id="Layer_1" data-name="Layer 1" xmlns="http://www.w3.org/2000/svg" version="1.1" viewBox="0 0 969 144">
  <defs>
    <style>
      .cls-1 {
        fill: #f2f0f4;
      }

      .cls-1, .cls-2 {
        stroke-width: 0px;
      }

      .cls-2 {
        fill: #9bf;
        fill-rule: evenodd;
      }
    </style>
  </defs>
  <path class="cls-2" d="M48.2,19.6c6.9,0,12.5,5.6,12.5,12.6v12.9h-12.9c-6.9,0-12.5-5.6-12.5-12.6v-12.9h12.9ZM73.2,45c-6.9,0-12.5,5.6-12.5,12.6v12.9h12.9c6.9,0,12.5-5.6,12.5-12.6v-12.9h-12.9ZM86.1,32.1c0-6.9,5.6-12.6,12.5-12.6h12.9v12.9c0,6.9-5.6,12.6-12.5,12.6h-12.9v-12.9ZM73.6,96c6.9,0,12.5,5.6,12.5,12.6v12.9h-12.9c-6.9,0-12.5-5.6-12.5-12.6v-12.9h12.9ZM60.7,83.1c0-6.9-5.6-12.6-12.5-12.6h-12.9v12.9c0,6.9,5.6,12.6,12.5,12.6h12.9v-12.9ZM98.6,70.5c-6.9,0-12.5,5.6-12.5,12.6v12.9h12.9c6.9,0,12.5-5.6,12.5-12.6v-12.9h-12.9ZM111.5,57.6c0-6.9,5.6-12.6,12.5-12.6h12.9v12.9c0,6.9-5.6,12.6-12.5,12.6h-12.9v-12.9ZM22.8,45c6.9,0,12.5,5.6,12.5,12.6v12.9h-12.9c-6.9,0-12.5-5.6-12.5-12.6v-12.9h12.9Z"/>
  <path class="cls-2" d="M48.4,20.7c6.8,0,12.3,5.5,12.3,12.3v12.7h-12.7c-6.8,0-12.3-5.5-12.3-12.3v-12.7h12.7ZM73,45.7c-6.8,0-12.3,5.5-12.3,12.3v12.7h12.7c6.8,0,12.3-5.5,12.3-12.3v-12.7h-12.7ZM85.7,33c0-6.8,5.5-12.3,12.3-12.3h12.7v12.7c0,6.8-5.5,12.3-12.3,12.3h-12.7v-12.7ZM73.4,95.8c6.8,0,12.3,5.5,12.3,12.3v12.7h-12.7c-6.8,0-12.3-5.5-12.3-12.3v-12.7h12.7ZM60.7,83.1c0-6.8-5.5-12.3-12.3-12.3h-12.7v-12.7c0-6.8-5.5-12.3-12.3-12.3h-12.7v12.7c0,6.8,5.5,12.3,12.3,12.3h12.7v12.7c0,6.8,5.5,12.3,12.3,12.3h12.7v-12.7ZM98,70.7c-6.8,0-12.3,5.5-12.3,12.3v12.7h12.7c6.8,0,12.3-5.5,12.3-12.3v-12.7h12.7c6.8,0,12.3-5.5,12.3-12.3v-12.7h-12.7c-6.8,0-12.3,5.5-12.3,12.3v12.7h-12.7Z"/>
  <path class="cls-1" d="M200.3,101.4v-59.1h19.8v59.1h-19.8ZM260.9,54.4c3.5,0,6.7.7,9.6,2.2,2.9,1.4,5.1,3.6,6.7,6.7,1.7,3,2.5,7,2.5,11.8v26.3h-19v-23.1c0-2.9-.5-4.9-1.5-6.1-1-1.2-2.4-1.9-4.1-1.9s-2.5.3-3.6.9c-1.1.6-1.9,1.5-2.6,2.9-.6,1.4-.9,3.2-.9,5.5v21.7h-19v-46.2h18v13.5l-3.6-3.9c1.8-3.5,4.2-6.1,7.2-7.9,3.1-1.7,6.5-2.6,10.2-2.6ZM310.1,102.2c-6.3,0-11.2-1.5-14.8-4.6-3.5-3.1-5.3-7.8-5.3-14.2v-38.7h19v38.5c0,1.4.4,2.5,1.1,3.3.8.8,1.7,1.2,2.9,1.2,1.6,0,3-.4,4.3-1.3l4.5,13.3c-1.5.8-3.2,1.5-5.3,1.9-2,.4-4.1.6-6.4.6ZM283.8,71.7v-13.9h34.6v13.9h-34.6ZM350.6,102.2c-5.6,0-10.5-1-14.7-3.1-4.1-2.1-7.4-4.9-9.6-8.5-2.3-3.7-3.4-7.8-3.4-12.3s1.1-8.8,3.4-12.4c2.3-3.6,5.4-6.4,9.3-8.4,4-2,8.4-3,13.3-3s8.7.9,12.5,2.7c3.9,1.8,6.9,4.5,9.2,8,2.3,3.5,3.5,7.9,3.5,13.2s0,1.4,0,2.3c0,.8-.1,1.5-.2,2.2h-35.3v-9.2h25.2l-7.1,2.4c0-1.8-.3-3.3-1-4.6-.6-1.3-1.5-2.3-2.6-3-1.1-.7-2.5-1.1-4-1.1s-2.9.4-4.1,1.1c-1.1.7-2,1.7-2.6,3-.6,1.2-.9,2.8-.9,4.6v2.9c0,2,.4,3.7,1.2,5.1.8,1.4,1.9,2.5,3.4,3.2,1.5.7,3.2,1,5.3,1s3.9-.3,5.2-.8c1.4-.6,2.9-1.4,4.4-2.5l9.9,10c-2.2,2.4-5,4.3-8.3,5.6-3.2,1.2-7.2,1.9-11.7,1.9ZM380.1,101.4v-46.2h18v13.9l-2.9-4c1.4-3.6,3.6-6.3,6.7-8.1,3.1-1.8,6.8-2.7,11.1-2.7v16.9c-.8-.1-1.6-.2-2.3-.3-.6,0-1.3,0-1.9,0-2.9,0-5.2.8-7,2.3-1.8,1.5-2.7,4-2.7,7.7v20.5h-19ZM443.3,102.2c-5.6,0-10.5-1-14.7-3.1-4.1-2.1-7.4-4.9-9.6-8.5-2.3-3.7-3.4-7.8-3.4-12.3s1.1-8.8,3.4-12.4c2.3-3.6,5.4-6.4,9.3-8.4,4-2,8.4-3,13.3-3s8.7.9,12.5,2.7c3.9,1.8,6.9,4.5,9.2,8,2.3,3.5,3.5,7.9,3.5,13.2s0,1.4,0,2.3c0,.8-.1,1.5-.2,2.2h-35.3v-9.2h25.2l-7.1,2.4c0-1.8-.3-3.3-1-4.6-.6-1.3-1.5-2.3-2.6-3-1.1-.7-2.5-1.1-4-1.1s-2.9.4-4.1,1.1c-1.1.7-2,1.7-2.6,3-.6,1.2-.9,2.8-.9,4.6v2.9c0,2,.4,3.7,1.2,5.1.8,1.4,1.9,2.5,3.4,3.2,1.5.7,3.2,1,5.3,1s3.9-.3,5.2-.8c1.4-.6,2.9-1.4,4.4-2.5l9.9,10c-2.2,2.4-5,4.3-8.3,5.6-3.2,1.2-7.2,1.9-11.7,1.9ZM490.7,102.2c-3.9,0-7.8-.4-11.6-1.3-3.8-.8-6.9-1.9-9.2-3.3l5.2-12.6c2.2,1.3,4.7,2.3,7.5,3,2.9.7,5.7,1.1,8.5,1.1s3.8-.2,4.6-.6c.8-.4,1.3-.9,1.3-1.6s-.5-1.2-1.4-1.4c-1-.3-2.2-.6-3.8-.8-1.6-.2-3.3-.4-5.2-.6-1.8-.3-3.7-.7-5.6-1.2-1.9-.5-3.6-1.3-5.2-2.3-1.6-1-2.8-2.4-3.8-4.1-1-1.7-1.4-3.9-1.4-6.6s.9-5.6,2.6-7.9c1.8-2.4,4.4-4.3,7.9-5.7,3.5-1.5,7.9-2.2,13-2.2s6.7.3,10.1.9c3.4.6,6.2,1.6,8.6,2.9l-5.2,12.6c-2.3-1.3-4.7-2.2-7-2.6-2.2-.5-4.3-.8-6.3-.8s-4.1.2-4.9.7c-.8.5-1.3,1-1.3,1.5s.5,1.2,1.4,1.5c.9.3,2.2.6,3.8.8,1.6.2,3.3.4,5.1.7,1.9.2,3.8.6,5.6,1.2,1.9.5,3.6,1.3,5.2,2.3,1.6,1,2.8,2.4,3.8,4.1.9,1.7,1.4,3.9,1.4,6.5s-.9,5.3-2.6,7.8c-1.7,2.4-4.4,4.3-7.9,5.7-3.5,1.4-7.9,2.1-13.3,2.1ZM542.3,102.2c-6.3,0-11.2-1.5-14.8-4.6-3.5-3.1-5.3-7.8-5.3-14.2v-38.7h19v38.5c0,1.4.4,2.5,1.1,3.3.8.8,1.7,1.2,2.9,1.2,1.6,0,3-.4,4.3-1.3l4.5,13.3c-1.5.8-3.2,1.5-5.3,1.9-2,.4-4.1.6-6.4.6ZM516,71.7v-13.9h34.6v13.9h-34.6ZM584.5,101.4v-59.1h28.3c5.5,0,10.2.9,14.2,2.7,4,1.8,7.1,4.4,9.3,7.8,2.2,3.3,3.3,7.3,3.3,11.8s-1.1,8.5-3.3,11.8c-2.2,3.3-5.3,5.9-9.3,7.8-4,1.8-8.7,2.7-14.2,2.7h-17.3l8.8-8.5v23.1h-19.8ZM604.3,80.5l-8.8-9h16c2.7,0,4.8-.6,6-1.9,1.3-1.2,2-2.9,2-5.1s-.7-3.8-2-5.1c-1.3-1.2-3.3-1.9-6-1.9h-16l8.8-9v31.9ZM646.2,101.4v-46.2h18v13.9l-2.9-4c1.4-3.6,3.6-6.3,6.7-8.1,3.1-1.8,6.8-2.7,11.1-2.7v16.9c-.8-.1-1.6-.2-2.3-.3-.6,0-1.3,0-1.9,0-2.9,0-5.2.8-7,2.3-1.8,1.5-2.7,4-2.7,7.7v20.5h-19ZM708.3,102.2c-5.2,0-9.8-1-13.8-3-4-2.1-7.1-4.9-9.4-8.5-2.3-3.6-3.4-7.7-3.4-12.4s1.1-8.8,3.4-12.4c2.3-3.6,5.4-6.4,9.4-8.4,4-2,8.6-3,13.8-3s9.8,1,13.8,3c4,2,7.2,4.8,9.4,8.4,2.3,3.6,3.4,7.7,3.4,12.4s-1.1,8.8-3.4,12.4c-2.2,3.6-5.4,6.4-9.4,8.5-4,2-8.6,3-13.8,3ZM708.3,87.4c1.4,0,2.7-.3,3.8-1,1.1-.7,2-1.7,2.7-3,.7-1.4,1-3.1,1-5.1s-.3-3.7-1-5c-.7-1.4-1.6-2.4-2.7-3-1.1-.7-2.4-1-3.8-1s-2.7.3-3.8,1c-1.1.7-2,1.7-2.7,3-.7,1.3-1,3-1,5s.3,3.7,1,5.1c.7,1.4,1.6,2.4,2.7,3,1.1.7,2.4,1,3.8,1ZM763,102.2c-6.3,0-11.2-1.5-14.8-4.6-3.5-3.1-5.3-7.8-5.3-14.2v-38.7h19v38.5c0,1.4.4,2.5,1.1,3.3.8.8,1.7,1.2,2.9,1.2,1.6,0,3-.4,4.3-1.3l4.5,13.3c-1.5.8-3.2,1.5-5.3,1.9-2,.4-4.1.6-6.4.6ZM736.7,71.7v-13.9h34.6v13.9h-34.6ZM802.5,102.2c-5.2,0-9.8-1-13.8-3-4-2.1-7.1-4.9-9.4-8.5-2.3-3.6-3.4-7.7-3.4-12.4s1.1-8.8,3.4-12.4c2.3-3.6,5.4-6.4,9.4-8.4,4-2,8.6-3,13.8-3s9.8,1,13.8,3c4,2,7.2,4.8,9.4,8.4,2.3,3.6,3.4,7.7,3.4,12.4s-1.1,8.8-3.4,12.4c-2.2,3.6-5.4,6.4-9.4,8.5-4,2-8.6,3-13.8,3ZM802.5,87.4c1.4,0,2.7-.3,3.8-1,1.1-.7,2-1.7,2.7-3,.7-1.4,1-3.1,1-5.1s-.3-3.7-1-5c-.7-1.4-1.6-2.4-2.7-3-1.1-.7-2.4-1-3.8-1s-2.7.3-3.8,1c-1.1.7-2,1.7-2.7,3-.7,1.3-1,3-1,5s.3,3.7,1,5.1c.7,1.4,1.6,2.4,2.7,3,1.1.7,2.4,1,3.8,1ZM859.7,102.2c-5.3,0-9.9-1-14-3-4.1-2-7.3-4.8-9.6-8.4-2.3-3.7-3.4-7.8-3.4-12.5s1.1-8.8,3.4-12.4c2.3-3.6,5.6-6.4,9.6-8.4,4.1-2,8.8-3,14-3s10.4,1.2,14.3,3.6c4,2.4,6.7,5.8,8.2,10l-14.7,7.3c-1-2.1-2.1-3.7-3.5-4.6-1.3-1-2.8-1.4-4.4-1.4s-2.7.3-3.9,1c-1.2.7-2.1,1.7-2.9,3-.7,1.3-1,3-1,5s.3,3.7,1,5.1c.7,1.4,1.7,2.4,2.9,3,1.2.7,2.5,1,3.9,1s3.1-.5,4.4-1.4c1.4-1,2.6-2.5,3.5-4.6l14.7,7.3c-1.5,4.3-4.2,7.6-8.2,10-4,2.4-8.8,3.6-14.3,3.6ZM910.5,102.2c-5.2,0-9.8-1-13.8-3-4-2.1-7.1-4.9-9.4-8.5-2.3-3.6-3.4-7.7-3.4-12.4s1.1-8.8,3.4-12.4c2.3-3.6,5.4-6.4,9.4-8.4,4-2,8.6-3,13.8-3s9.8,1,13.8,3c4,2,7.2,4.8,9.4,8.4,2.3,3.6,3.4,7.7,3.4,12.4s-1.1,8.8-3.4,12.4c-2.2,3.6-5.4,6.4-9.4,8.5-4,2-8.6,3-13.8,3ZM910.5,87.4c1.4,0,2.7-.3,3.8-1s2-1.7,2.7-3c.7-1.4,1-3.1,1-5.1s-.3-3.7-1-5c-.7-1.4-1.6-2.4-2.7-3-1.1-.7-2.4-1-3.8-1s-2.7.3-3.8,1c-1.1.7-2,1.7-2.7,3-.7,1.3-1,3-1,5s.3,3.7,1,5.1c.7,1.4,1.6,2.4,2.7,3s2.4,1,3.8,1ZM943.1,101.4v-62.7h19v62.7h-19Z"/>
</svg>