<?xml version="1.0" encoding="utf-8"?>
<!-- Generator: Adobe Illustrator 28.2.0, SVG Export Plug-In . SVG Version: 6.00 Build 0)  -->
<svg version="1.1" id="Layer_1" xmlns="http://www.w3.org/2000/svg" xmlns:xlink="http://www.w3.org/1999/xlink" x="0px" y="0px"
	 viewBox="0 0 864 95.96" style="enable-background:new 0 0 864 95.96;" xml:space="preserve">
<style type="text/css">
	.st0{fill:#FFDA34;}
</style>
<g>
	<a xlink:href="100" >
		<path id="fullLogo_00000154410949069446114250000016264293735541984674_" class="st0" d="M105.71,46.04
			c-1.07,0-2.12-0.16-3.13-0.49l-0.13-0.04c-0.11-0.03-0.23-0.07-0.37-0.12c-0.3-0.1-0.62-0.25-0.99-0.45l-0.12-0.06
			c-1.33-0.7-2.52-1.7-3.43-2.9c-2.79-3.66-2.78-8.76,0.02-12.41c1.14-1.48,2.65-2.63,4.38-3.31l0.17-0.07
			c0.52-0.22,0.9-0.34,1.2-0.38l0.33-0.05c0.68-0.14,1.37-0.21,2.06-0.21c4.18,0,7.67-1.29,10.09-3.73
			c2.24-2.26,3.41-5.36,3.38-8.98V0H93.66v8.47c0,1.65,0,3.3,0,4.95c0.01,3.34-1.89,7.89-5.36,9.05c-2.21,0.74-4.95-0.36-7.3-0.09
			c-1.93,0.22-3.8,0.88-5.44,1.92c-3.3,2.08-5.52,5.63-5.95,9.5c-0.17,1.5-0.07,2.61,0,3.42c0.08,0.91,0.1,1.18-0.22,2.09
			c-0.62,1.77-1.96,3.41-3.76,4.62c-1.8,1.21-3.87,1.88-5.82,1.88l-0.19,0l-0.19,0c-1.96,0-4.03-0.67-5.82-1.88
			c-1.8-1.21-3.13-2.85-3.76-4.62c-0.32-0.9-0.3-1.18-0.22-2.09c0.07-0.81,0.16-1.93,0-3.42c-0.43-3.88-2.66-7.42-5.95-9.5
			c-1.64-1.04-3.51-1.7-5.44-1.92c-2.35-0.27-5.09,0.83-7.3,0.09c-3.47-1.16-5.36-5.71-5.36-9.05c0-1.65,0-3.3,0-4.95V0H0.06v12.86
			c-0.03,3.62,1.14,6.73,3.38,8.98c2.42,2.44,5.91,3.73,10.09,3.73c0.69,0,1.39,0.07,2.06,0.21l0.33,0.05
			c0.3,0.04,0.68,0.16,1.2,0.38l0.17,0.07c1.73,0.68,3.24,1.83,4.38,3.31c2.8,3.65,2.81,8.75,0.02,12.41c-0.91,1.2-2.1,2.2-3.43,2.9
			l-0.12,0.06c-0.36,0.2-0.69,0.35-0.99,0.45c-0.13,0.05-0.25,0.08-0.36,0.12l-0.13,0.04c-1.01,0.32-2.06,0.49-3.13,0.49
			C5.43,46.04,0,51.01,0,58.41c0,5.77,2.64,8.77,4.85,10.27c2.7,1.83,5.95,2.34,9.06,2.63l0.22,0.02c0.83,0.11,1.52,0.28,2.32,0.56
			l0.39,0.15l0.07,0.02c2.1,0.72,3.85,2.18,4.95,4.12c0.62,1.1,1.05,2.53,1.2,4.04c0.06,0.59,0.1,1.17,0.14,1.73
			c0.03,0.43,0.07,0.92,0.11,1.4v11.14h25.33V81.38c0-3.37-1.28-6.64-3.67-9.02c-0.09-0.09-0.17-0.17-0.26-0.25
			c-0.19-0.18-0.36-0.33-0.5-0.45l-0.09-0.07c-2.75-2.38-6.32-2.44-8.92-2.49h-0.03c-0.44-0.01-0.85-0.02-1.21-0.03L33.57,69
			l-0.84-0.19l-0.79-0.24l-0.85-0.34c-0.89-0.4-1.73-0.93-2.46-1.56l-0.17-0.14c-2.36-2.11-3.53-4.71-3.58-7.94
			c0.01-2.31,0.75-4.5,2.14-6.34c1.36-1.79,3.29-3.12,5.42-3.75c2.16-0.64,6.2-0.65,8.15-0.03c3.55,1.13,6.06,4.38,6.26,8.09
			c0.02,0.31,0,0.63-0.01,1c-0.04,1.09-0.1,2.58,0.53,4.46c1.78,5.24,6.69,8.77,12.24,8.8c5.55-0.03,10.47-3.56,12.24-8.8
			c0.63-1.88,0.57-3.37,0.53-4.46c-0.01-0.38-0.03-0.7-0.01-1c0.2-3.71,2.71-6.96,6.26-8.09c1.95-0.62,5.98-0.61,8.15,0.03
			c2.14,0.63,4.06,1.96,5.42,3.75c1.39,1.84,2.13,4.03,2.14,6.34c-0.05,3.24-1.22,5.83-3.58,7.94l-0.17,0.14
			c-0.74,0.63-1.57,1.16-2.46,1.56l-0.85,0.34l-0.79,0.24L85.66,69l-0.39,0.06c-0.36,0.02-0.78,0.03-1.21,0.03h-0.03
			c-2.61,0.05-6.18,0.11-8.92,2.49l-0.09,0.07c-0.14,0.12-0.31,0.27-0.5,0.45c-0.09,0.08-0.17,0.17-0.26,0.25
			c-2.38,2.38-3.67,5.65-3.67,9.02v13.11h25.33V83.36c0.05-0.49,0.08-0.97,0.11-1.4c0.04-0.57,0.08-1.14,0.14-1.73
			c0.16-1.51,0.59-2.94,1.2-4.04c1.09-1.94,2.85-3.4,4.95-4.12l0.07-0.02l0.39-0.15c0.8-0.29,1.5-0.46,2.32-0.56l0.22-0.02
			c3.11-0.29,6.37-0.8,9.06-2.63c2.21-1.5,4.85-4.49,4.85-10.27C119.23,51.01,113.79,46.04,105.71,46.04L105.71,46.04z"/>
	</a>
	<path id="fullLogo_00000078736911727924428690000014541988752833392786_" class="st0" d="M279.93,94.49L279.93,94.49l-15.81,0.01
		V26.07c0-3.48-4.95-4.12-5.84-0.76L240.1,94.49h-30.03l-18.2-69.18c-0.88-3.36-5.84-2.72-5.84,0.76v68.42h-15.81V1.28h31.26
		l20.78,80.35c0.76,2.97,4.99,2.97,5.75,0l20.67-80.35h31.26V94.49z M351.77,61.37c0,20.36-12.87,34.59-33.34,34.59
		c-20.47,0-33.22-14.11-33.22-34.59c0-20.36,12.87-34.46,33.22-34.46C338.78,26.91,351.77,41.02,351.77,61.37z M336.08,61.37
		c0-14.47-6.25-23.67-17.65-23.67c-11.4,0-17.65,9.2-17.65,23.67s6.37,23.79,17.65,23.79C329.71,85.17,336.08,75.96,336.08,61.37z
		 M402.15,28.39L402.15,28.39l-16.53,54.88c-0.85,2.81-4.83,2.81-5.68,0l-16.65-54.88h-15.32l20.47,66.11h28.68l20.47-66.11H402.15z
		 M478.65,61c0,1.47-0.13,3.19-0.37,4.91v0.01h-45.37c-1.88,0-3.26,1.72-2.91,3.57c2.02,10.4,8.13,15.69,16.53,15.69
		s12.75-3.8,15.08-10.18h15.57C473,89.1,461.85,95.96,446.41,95.96c-20.23,0-32.49-14.47-32.49-34.59s12.63-34.46,32.49-34.46
		C466.27,26.91,478.65,40.4,478.65,61z M462.45,51.64c-1.79-8.5-7.74-13.93-16.05-13.93c-8.31,0-13.8,4.47-16.1,13.85
		c-0.46,1.87,0.96,3.68,2.89,3.68h26.37C461.44,55.24,462.84,53.49,462.45,51.64z M559.56,26.91c-8.89,0-14.71,4.69-18.18,10.48
		c-1.19,1.97-4,1.95-5.15-0.04c-3.4-5.9-9.32-10.44-17.99-10.44c-6.7,0-11.54,2.57-14.98,6.34c-1.82,1.99-5.13,0.67-5.13-2.03v-2.83
		h-15.2v66.11h15.32V56.11c0-12.63,4.53-18.27,13.11-18.27c8.58,0,13,5.64,13,18.03v38.63h15.32V56.11
		c0-12.63,4.53-18.27,13.11-18.27c8.58,0,13,5.64,13,18.03v38.63h15.32V52.91h0.01C581.14,37.83,574.27,26.91,559.56,26.91z
		 M649.65,61c0,1.47-0.13,3.19-0.37,4.91v0.01h-45.37c-1.88,0-3.26,1.72-2.91,3.57c2.02,10.4,8.13,15.69,16.53,15.69
		s12.75-3.8,15.08-10.18h15.57c-4.17,14.11-15.32,20.97-30.77,20.97c-20.23,0-32.49-14.47-32.49-34.59s12.62-34.46,32.49-34.46
		S649.65,40.4,649.65,61z M633.45,51.64c-1.79-8.5-7.74-13.93-16.05-13.93c-8.31,0-13.8,4.47-16.1,13.85
		c-0.46,1.87,0.96,3.68,2.89,3.68h26.37C632.45,55.24,633.85,53.49,633.45,51.64z M690.11,26.92c-7.02,0-12.17,2.6-15.81,6.48
		c-1.85,1.97-5.16,0.71-5.16-2v-3.01h-15.2v66.11h15.32V56.11c0-12.63,5.27-18.27,13.97-18.27c8.7,0,13.97,5.51,13.97,18.03v38.63
		h15.32V52.92C712.54,38.2,705.31,26.92,690.11,26.92z M741.37,83.1L741.37,83.1c-5.63-0.01-8.95-1.85-8.95-8.22V42.64
		c0-1.64,1.33-2.97,2.97-2.97h12.72V28.4h-12.72c-1.64,0-2.97-1.33-2.97-2.97V12.7H717.1v62.91c0,12.88,9.44,18.89,21.7,18.89h9.56
		V83.1H741.37z"/>
	<path id="fullLogo_00000130631667367812227190000010384276146112278716_" class="st0" d="M782.31,33.61h8.91v3.12h-13.25V15.37
		h3.65v17.56C781.63,33.3,781.94,33.61,782.31,33.61z M806.22,15.37l7.44,21.36h-3.85l-1.91-5.66c-0.09-0.28-0.35-0.46-0.65-0.46
		h-9.06c-0.29,0-0.56,0.19-0.65,0.46l-1.91,5.66h-3.85l7.44-21.36H806.22z M806.4,26.61l-3.01-8.89c-0.21-0.62-1.09-0.62-1.3,0
		l-3.03,8.89c-0.15,0.44,0.18,0.9,0.65,0.9h6.04C806.22,27.51,806.55,27.05,806.4,26.61z M831.5,30.77c0,3.79-2.92,5.96-8.24,5.96
		h-8.52V15.37h8.46c5.41,0,7.56,2.59,7.56,5.56c0,2.98-2.26,4.53-5.41,4.83C829.26,25.91,831.5,27.54,831.5,30.77z M818.39,23.51
		c0,0.38,0.31,0.68,0.69,0.68h4.21c2.35,0,3.71-0.87,3.71-2.84c0-1.97-1.36-2.87-3.71-2.87h-4.21c-0.38,0-0.69,0.3-0.69,0.68V23.51z
		 M827.73,30.46c0-2.05-1.41-3.15-4.3-3.15h-4.35c-0.38,0-0.69,0.3-0.69,0.68v4.94c0,0.38,0.31,0.68,0.69,0.68h4.35
		C826.32,33.61,827.73,32.51,827.73,30.46z M831.5,30.77L831.5,30.77C831.5,30.77,831.5,30.77,831.5,30.77
		C831.5,30.77,831.5,30.77,831.5,30.77z M843.86,24.5l-2.86-0.62c-3.14-0.7-4.41-1.32-4.41-3.06c0-1.74,2.01-2.84,4.39-2.84
		c2.38,0,4.13,0.9,4.75,3.01h3.79c-0.62-3.51-3.65-5.96-8.55-5.96c-4.5,0-8.04,2.59-8.04,6.13c0,3.29,2.41,5.03,5.89,5.79l2.89,0.62
		c3.17,0.7,4.73,1.32,4.73,3.26c0,1.94-1.9,3.29-5.32,3.29c-2.63,0-4.67-1.29-5.04-3.91h-3.79l0,0c0.62,4.27,4.02,6.86,8.75,6.86
		c5.43,0,9.03-2.61,9.03-6.63C850.06,27.08,848.05,25.43,843.86,24.5z M766.87,17.08v3.26c0,3.09-0.88,3.57-2.83,3.79v3.35
		c1.95,0.22,2.83,0.7,2.83,3.74v3.85c0,2.59,1.47,4.41,4.81,4.41h0.99v-2.61h-0.34c-1.27,0-1.92-0.73-1.92-2.25v-3.96
		c0-2.44-0.8-3.58-2.15-4.23c-0.51-0.24-0.51-0.97-0.01-1.21c1.36-0.66,2.15-1.82,2.15-4.31v-3.37c0-1.55,0.62-2.3,1.92-2.3h0.34
		v-2.61h-0.99C768.31,12.61,766.87,14.46,766.87,17.08z M861.17,20.87v-3.85c0-2.59-1.47-4.41-4.81-4.41h-0.99v2.61h0.34
		c1.27,0,1.92,0.73,1.92,2.25v3.96c0,2.44,0.8,3.58,2.15,4.23c0.51,0.24,0.51,0.97,0.01,1.21c-1.36,0.66-2.15,1.82-2.15,4.31v0v3.37
		c0,1.55-0.62,2.3-1.92,2.3h-0.34v2.61h0.99c3.37,0,4.81-1.86,4.81-4.47v-3.26c0-3.09,0.88-3.57,2.83-3.79v-3.35
		C862.05,24.39,861.17,23.91,861.17,20.87z"/>
</g>
</svg>
