<?xml version="1.0" encoding="UTF-8"?>
<svg id="Layer_1" xmlns="http://www.w3.org/2000/svg" xmlns:xlink="http://www.w3.org/1999/xlink" viewBox="0 0 1573 270">
  <defs>
    <style>
      .cls-1 {
        fill: none;
      }

      .cls-2 {
        fill: #ffc70f;
      }

      .cls-3 {
        clip-path: url(#clippath-1);
      }

      .cls-4 {
        clip-path: url(#clippath-3);
      }

      .cls-5 {
        clip-path: url(#clippath-4);
      }

      .cls-6 {
        clip-path: url(#clippath-2);
      }

      .cls-7 {
        clip-path: url(#clippath-6);
      }

      .cls-8 {
        clip-path: url(#clippath-5);
      }

      .cls-9 {
        fill: #fff;
      }

      .cls-10 {
        clip-path: url(#clippath);
      }
    </style>
    <clipPath id="clippath">
      <rect class="cls-1" x="197.33" y="198.67" width="60" height="60"/>
    </clipPath>
    <clipPath id="clippath-1">
      <rect class="cls-1" x="197.92" y="198.76" width="58.28" height="58.28" transform="translate(-22.95 430.36) rotate(-84.11)"/>
    </clipPath>
    <clipPath id="clippath-2">
      <rect class="cls-1" x="197.92" y="198.76" width="58.28" height="58.28" transform="translate(-22.95 430.36) rotate(-84.11)"/>
    </clipPath>
    <clipPath id="clippath-3">
      <rect class="cls-1" x="12" y="10.67" width="242.67" height="208"/>
    </clipPath>
    <clipPath id="clippath-4">
      <rect class="cls-1" x="35.2" y="-1.81" width="183.16" height="241.44" transform="translate(-10.01 226.16) rotate(-81.26)"/>
    </clipPath>
    <clipPath id="clippath-5">
      <rect class="cls-1" x="733.42" y="-600.92" width="183.16" height="1654.27" transform="translate(476.08 1007.28) rotate(-81.26)"/>
    </clipPath>
    <clipPath id="clippath-6">
      <rect class="cls-1" x="733.42" y="-600.92" width="183.16" height="1654.27" transform="translate(476.08 1007.28) rotate(-81.26)"/>
    </clipPath>
  </defs>
  <g class="cls-10">
    <g class="cls-3">
      <g class="cls-6">
        <path class="cls-2" d="M230.2,198.93c-16.07-1.66-30.48,10.05-32.14,26.12-1.66,16.07,10.05,30.47,26.12,32.14,16.07,1.66,30.47-10.05,32.14-26.12,1.66-16.07-10.05-30.48-26.12-32.14ZM243.27,232.57l-13.55-1.4-1.4,13.55c-.16,1.54-1.55,2.69-3.11,2.53-1.56-.16-2.69-1.57-2.53-3.11l1.4-13.55-13.55-1.4c-1.54-.16-2.69-1.55-2.53-3.11.16-1.56,1.57-2.69,3.11-2.53l13.55,1.4,1.4-13.55c.16-1.54,1.55-2.69,3.11-2.53,1.56.16,2.69,1.57,2.53,3.11l-1.4,13.55,13.55,1.4c1.54.16,2.69,1.55,2.53,3.11-.16,1.56-1.57,2.69-3.11,2.53Z"/>
      </g>
    </g>
  </g>
  <g class="cls-4">
    <g class="cls-5">
      <g class="cls-8">
        <g class="cls-7">
          <path class="cls-9" d="M213.45,90.54l.35-.09c1.03-.27,1.78-.39,2.35-.37h.64c1.3-.07,2.63,0,3.93.2,7.85,1.21,14.79-.23,20.06-4.15,3.79-2.82,6.51-6.82,8-11.71l.4.06,4.42-28.73-47.97-7.38-3.2,20.79c-.34,1.48-.55,2.86-.72,4.08-.2,1.34-.39,2.61-.69,3.54l-.09.3c-1.17,3.97-3.71,7.44-7.17,9.77-3.54,2.38-5.08,2.78-5.58,2.84-.51.07-1.19-.1-3.17-.69-1.7-.5-4.04-1.19-6.95-1.64-12.43-1.91-24.29,5.85-27.59,18.08-.74,2.78-.9,4.92-1.01,6.48-.13,1.73-.16,2.26-1.02,3.88-1.69,3.17-4.68,5.9-8.42,7.68-3.73,1.78-7.81,2.44-11.49,1.88l-.36-.06-.36-.05c-3.68-.56-7.38-2.42-10.4-5.24s-5.06-6.32-5.72-9.84c-.33-1.81-.21-2.32.2-4.02.36-1.52.86-3.6.99-6.49.53-12.64-8.45-23.61-20.89-25.52-2.91-.45-5.35-.49-7.14-.53-2.05-.04-2.76-.08-3.22-.29-.45-.21-1.81-1.06-4.47-4.39-2.6-3.25-3.98-7.32-3.9-11.46v-.31c0-.48.04-1.03.11-1.61l4.13-26.86-47.98-7.38-3.74,24.36c-1.11,6.85.18,13.07,3.74,17.99,3.84,5.32,10.02,8.77,17.88,9.98,1.31.2,2.59.53,3.82.98l.6.2c.55.16,1.22.49,2.14,1.06l.3.18c3.06,1.8,5.57,4.4,7.28,7.54,4.2,7.72,2.73,17.39-3.57,23.51-2.06,2.01-4.59,3.56-7.29,4.49l-.24.09c-.74.27-1.4.46-1.99.57-.27.05-.5.08-.72.11l-.25.03c-1.98.32-4.02.33-6.03.02-15.21-2.33-26.87,5.51-29.03,19.53-1.68,10.94,2.4,17.38,6.12,20.85,4.54,4.24,10.51,6.16,16.28,7.6l.4.11c1.53.44,2.79.96,4.21,1.74l.68.39.12.07c3.73,1.96,6.61,5.23,8.1,9.23.84,2.26,1.23,5.1,1.09,8-.06,1.14-.15,2.24-.23,3.33-.07.82-.14,1.75-.19,2.69l-3.24,21.1,47.97,7.38,4.33-28.18-.33-.06c.04-5.54-1.75-10.9-5.2-15.37-.31-.39-.59-.73-.82-.99l-.14-.17c-4.47-5.3-11.17-6.45-16.05-7.29h-.06c-.82-.15-1.59-.28-2.27-.42l-.72-.23-1.52-.59-1.42-.69-1.5-.89c-1.56-1.03-2.97-2.27-4.18-3.67l-.27-.32c-3.83-4.68-5.27-9.94-4.42-16.09.69-4.38,2.72-8.32,5.88-11.39,3.08-2.99,7.08-4.96,11.29-5.54,4.26-.58,11.84.56,15.32,2.3,6.34,3.17,10.13,10.05,9.42,17.14-.06.59-.18,1.19-.31,1.9-.39,2.05-.93,4.85-.3,8.61,1.82,10.44,10.03,18.56,20.47,20.21,10.42,1.56,20.69-3.72,25.57-13.15,1.72-3.37,2.05-6.21,2.29-8.29.08-.71.16-1.32.28-1.9,1.45-6.97,7.13-12.4,14.13-13.52,3.84-.61,11.42.58,15.31,2.42,3.83,1.81,7.07,4.89,9.1,8.67,2.09,3.88,2.84,8.24,2.18,12.63-1.03,6.12-3.99,10.7-9.05,14.02l-.32.21c-1.6.99-3.32,1.75-5.12,2.26l-1.69.4-1.56.23-1.34.1h-1.05c-.69-.06-1.47-.17-2.29-.28h-.05c-4.92-.67-11.65-1.58-17.49,2.12l-.2.13c-.3.19-.67.42-1.08.71-4.46,3.11-7.71,7.49-9.39,12.56l-.43-.07-4.42,28.73,47.97,7.38,3.24-21.1c.23-.91.44-1.82.63-2.63.23-1.05.48-2.13.77-3.24.74-2.82,1.96-5.41,3.44-7.31,2.63-3.36,6.35-5.62,10.5-6.38l.9-.19c1.59-.31,2.95-.43,4.54-.4l.41.02c5.94.36,12.2.32,17.81-2.36,8.32-3.98,11.17-12.02,12.09-18.05,2.16-14.02-6.61-25-21.82-27.34-2.01-.31-3.94-.92-5.74-1.82l-.22-.11c-.2-.09-.42-.2-.64-.32-.55-.29-1.12-.66-1.76-1.16l-.19-.15c-2.3-1.7-4.24-3.94-5.61-6.48-4.17-7.73-2.67-17.4,3.66-23.5,2.57-2.48,5.75-4.21,9.2-5h0Z"/>
        </g>
      </g>
    </g>
  </g>
  <path class="cls-2" d="M300.48,188.81v-110.58h7.9l12.04,110.58h49.08l12.04-110.58h8.08v110.58h22.77v-106.46c0-15.04-12.23-27.08-27.27-27.08s-25.21,10.54-26.71,24.83l-11.29,103.81h-4.15l-11.46-103.81c-1.52-14.29-12.04-24.83-26.52-24.83s-27.27,12.04-27.27,27.08v106.46h22.75Z"/>
  <path class="cls-2" d="M432.12,145.18c0,25,20.13,45.31,45.33,45.31s45.33-20.31,45.33-45.31v-44.58c0-24.83-20.5-45.33-45.33-45.33s-45.33,20.31-45.33,45.33v44.58ZM454.89,100.6c0-12.23,10.33-22.38,22.56-22.38s22.38,10.15,22.38,22.38v44.58c0,12.4-9.96,22.56-22.38,22.56s-22.56-10.17-22.56-22.56v-44.58Z"/>
  <path class="cls-2" d="M535.94,57.14l20.88,131.67h48.9l20.88-131.67h-23.13l-20.13,126.77h-4.15l-20.13-126.77h-23.13Z"/>
  <path class="cls-2" d="M643.51,57.14v131.67h72.6v-22.94h-49.85v-33.29h44.96v-22.96h-44.96v-29.71h49.85v-22.77h-72.6Z"/>
  <path class="cls-9" d="M858.35,188.57c14.43,0,24.66-10.04,26.13-24.09l11.5-105.5h-22.28l-11.7,107.35h-7.31l-11.66-107.35h-47.67l-11.7,107.35h-7.27l-11.7-107.35h-22.28c3.85,35.78,7.5,69.72,11.5,105.5,1.46,13.89,11.85,24.09,26.13,24.09s24.63-10.04,26.09-24.09l10.97-100.77h4.19l10.97,100.77c1.46,14.04,11.66,24.09,26.09,24.09Z"/>
  <path class="cls-9" d="M913.31,186.77h22.09V58.99h-22.09v127.78Z"/>
  <path class="cls-9" d="M958.19,58.99v127.78h22.12v-54.6h43.63v-22.28h-43.63v-28.82h48.37v-22.09h-70.49Z"/>
  <path class="cls-9" d="M1046.92,58.99v127.78h22.12v-54.6h43.63v-22.28h-43.63v-28.82h48.37v-22.09h-70.49Z"/>
  <path class="cls-9" d="M1135.64,186.77h22.12v-54.6h19.7l24.09,54.6h25.2l-25.36-57.52c13.31-5.46,22.28-19.35,22.28-33.74,0-20.08-16.62-36.51-36.71-36.51h-51.33v127.78ZM1157.77,81.07h29.2c8.04,0,14.43,6.54,14.43,14.43s-6.23,14.39-14.43,14.39h-29.2v-28.82Z"/>
  <path class="cls-9" d="M1244.08,58.99v127.78h70.49v-22.28h-48.37v-32.32h43.63v-22.28h-43.63v-28.82h48.37v-22.09h-70.49Z"/>
  <path class="cls-9" d="M1413.16,58.99v107.35h-7.5l-23.16-107.35h-47.87v127.78h22.12V63.72h4.19l22.28,103.5c2.54,12.04,13.31,21.35,25.74,21.35,14.39,0,26.28-11.85,26.28-26.28V58.99h-22.09Z"/>
  <path class="cls-9" d="M1496.21,131.44c11.31,1.85,23.93,5.66,23.93,18.28,0,9.12-6.96,16.62-16.08,16.62h-11.31c-8.97,0-16.24-7.31-16.24-16.28v-3.27h-22.09v3.27c0,21.35,17.16,38.36,38.32,38.36h11.31c21.74,0,38.36-17.55,38.36-39.44,0-23.93-19.74-35.59-42.17-39.25-8.97-1.46-23.74-4.39-23.74-16.08,0-7.85,6.54-14.24,14.43-14.24h14.78c8.04,0,14.43,6.39,14.43,14.43v2.54h22.28v-2.54c0-20.28-16.43-36.71-36.71-36.71h-14.78c-20.28,0-36.51,16.43-36.51,37.25,0,23.93,21.16,33.59,41.79,37.05Z"/>
</svg>