<svg width="1045" height="299" viewBox="0 0 1045 299" fill="none" xmlns="http://www.w3.org/2000/svg">
<path fill-rule="evenodd" clip-rule="evenodd" d="M8.81332 230.859C27.2725 249.32 73.8062 183.344 64.8086 174.348C55.811 165.352 -9.64587 212.399 8.81332 230.859Z" fill="#F66841"/>
<path d="M203.992 48.7676C203.992 42.1401 198.619 36.7676 191.992 36.7676L128.496 36.7676C117.046 36.7676 107.061 28.9849 104.265 17.881C103.622 15.3273 105.48 12.8254 108.111 12.7038L220.445 7.51309C227.491 7.18751 233.297 12.9799 232.987 20.0266L228.044 132.638C227.928 135.272 225.425 137.136 222.869 136.492C211.77 133.698 203.992 123.717 203.992 112.272V48.7676Z" fill="#F66841"/>
<path d="M152.563 100.196C152.563 93.5684 147.19 88.1958 140.563 88.1958L77.0676 88.1958C65.6172 88.1958 55.6318 80.4131 52.8359 69.3092C52.1929 66.7555 54.0517 64.2536 56.6823 64.132L169.016 58.9413C176.062 58.6157 181.868 64.4081 181.559 71.4548L176.615 184.066C176.5 186.7 173.996 188.564 171.44 187.92C160.342 185.126 152.563 175.145 152.563 163.7V100.196Z" fill="#F66841"/>
<path d="M101.134 151.624C101.134 144.997 95.7618 139.624 89.1344 139.624L25.6392 139.624C14.1887 139.624 4.20338 131.842 1.40743 120.738C0.764418 118.184 2.62324 115.682 5.25381 115.561L117.588 110.37C124.634 110.044 130.439 115.837 130.13 122.883L125.187 235.495C125.071 238.128 122.568 239.993 120.012 239.349C108.913 236.554 101.134 226.574 101.134 215.129V151.624Z" fill="#F66841"/>
<path d="M914.785 298.5C913.158 298.5 912.078 296.816 912.757 295.338L944.992 225.102C945.495 224.006 945.533 222.752 945.097 221.627L941.512 212.379L879.583 71.5444C878.934 70.0696 880.015 68.4146 881.626 68.4146H904.496C906.287 68.4146 907.904 69.4845 908.604 71.1324L956.163 183.071C957.685 186.653 962.741 186.708 964.34 183.16L1014.88 71.0436C1015.6 69.4434 1017.19 68.4146 1018.95 68.4146H1040.56C1042.18 68.4146 1043.26 70.0911 1042.59 71.5685L940.772 295.882C940.049 297.476 938.459 298.5 936.708 298.5H914.785Z" fill="white"/>
<path d="M790.924 232.656C777.642 232.656 766.609 230.407 757.826 225.908C749.042 221.409 742.508 215.411 738.223 207.913C733.939 200.414 731.796 192.274 731.796 183.49C731.796 167.208 738.009 154.676 750.435 145.892C762.86 137.109 779.784 132.717 801.207 132.717H842.34C843.405 132.717 844.268 131.854 844.268 130.789V130.789C844.268 116.864 840.626 106.366 833.342 99.2968C826.058 92.0129 816.311 88.3709 804.1 88.3709C793.602 88.3709 784.497 91.0488 776.785 96.4046C770.206 100.916 765.772 107.323 763.481 115.627C762.911 117.691 761.097 119.22 758.956 119.22H739.905C737.278 119.22 735.203 116.956 735.641 114.366C737.242 104.899 740.888 96.77 746.578 89.9777C753.434 82.0511 761.896 76.0526 771.965 71.9821C782.034 67.6975 792.745 65.5552 804.1 65.5552C826.38 65.5552 843.09 71.5537 854.23 83.5507C865.584 95.3335 871.261 111.08 871.261 130.789V224.337C871.261 226.802 869.263 228.8 866.798 228.8H851.379C849.012 228.8 847.056 226.951 846.923 224.587L846.024 208.58C845.896 206.296 842.589 205.538 841.293 207.423C837.186 213.397 831.965 218.701 825.63 223.337C817.061 229.55 805.492 232.656 790.924 232.656ZM795.102 209.841C805.385 209.841 814.168 207.163 821.452 201.807C828.95 196.451 834.628 189.489 838.484 180.919C842.029 173.04 843.945 164.528 844.23 155.881C844.272 154.624 843.249 153.605 841.992 153.605H803.457C787.604 153.605 776.357 156.39 769.715 161.96C763.288 167.316 760.075 174.064 760.075 182.205C760.075 190.56 763.074 197.308 769.073 202.45C775.285 207.377 783.962 209.841 795.102 209.841Z" fill="white"/>
<path d="M688.344 228.798C673.776 228.798 662.315 225.264 653.96 218.194C645.605 211.124 641.427 198.377 641.427 179.953V92.2255L641.43 69.4097L641.429 36.2119C641.429 34.9971 641.924 33.8348 642.8 32.9932L660.865 15.6392C663.701 12.9143 668.42 14.9246 668.42 18.8578V64.9466C668.42 67.4115 670.418 69.4097 672.883 69.4097H701.452C703.917 69.4097 705.915 71.408 705.915 73.8729V87.7623C705.915 90.2272 703.917 92.2255 701.452 92.2255H672.883C670.418 92.2255 668.42 94.2237 668.42 96.6886V179.953C668.42 190.022 670.455 196.878 674.526 200.52C678.596 203.948 685.773 205.661 696.056 205.661H708.303C710.768 205.661 712.766 207.66 712.766 210.125V224.335C712.766 226.8 710.768 228.798 708.303 228.798H688.344Z" fill="white"/>
<path d="M532.481 232.656C519.198 232.656 508.165 230.407 499.382 225.908C490.598 221.409 484.064 215.411 479.78 207.913C475.495 200.414 473.353 192.274 473.353 183.49C473.353 167.208 479.566 154.676 491.991 145.892C504.416 137.109 521.341 132.717 542.764 132.717H583.896C584.961 132.717 585.824 131.854 585.824 130.789V130.789C585.824 116.864 582.182 106.366 574.899 99.2968C567.615 92.0129 557.867 88.3709 545.656 88.3709C535.159 88.3709 526.054 91.0488 518.341 96.4046C511.763 100.916 507.328 107.323 505.037 115.627C504.468 117.691 502.654 119.22 500.513 119.22H481.462C478.834 119.22 476.759 116.956 477.197 114.366C478.798 104.899 482.444 96.77 488.135 89.9777C494.99 82.0511 503.452 76.0526 513.521 71.9821C523.59 67.6975 534.302 65.5552 545.656 65.5552C567.936 65.5552 584.646 71.5537 595.786 83.5507C607.14 95.3335 612.818 111.08 612.818 130.789V224.337C612.818 226.802 610.819 228.8 608.354 228.8H592.936C590.568 228.8 588.613 226.951 588.48 224.587L587.58 208.58C587.452 206.296 584.145 205.538 582.849 207.423C578.743 213.397 573.522 218.701 567.186 223.337C558.617 229.55 547.048 232.656 532.481 232.656ZM536.658 209.841C546.941 209.841 555.725 207.163 563.009 201.807C570.507 196.451 576.184 189.489 580.04 180.919C583.592 173.027 585.508 164.498 585.788 155.836C585.828 154.604 584.825 153.605 583.593 153.605H545.013C529.16 153.605 517.913 156.39 511.272 161.96C504.845 167.316 501.631 174.064 501.631 182.205C501.631 190.56 504.631 197.308 510.629 202.45C516.842 207.377 525.518 209.841 536.658 209.841Z" fill="white"/>
<path d="M379.801 232.656C363.305 232.656 348.952 229.657 336.74 223.659C324.529 217.66 315.103 209.305 308.462 198.593C302.528 189.023 299.246 178.085 298.613 165.779C298.487 163.318 300.498 161.317 302.963 161.317H322.315C324.78 161.317 326.758 163.319 326.958 165.776C327.536 172.872 329.511 179.526 332.884 185.74C336.955 193.023 342.846 198.915 350.558 203.414C358.485 207.698 368.232 209.841 379.801 209.841C395.011 209.841 406.794 206.199 415.149 198.915C423.504 191.631 427.682 182.526 427.682 171.6C427.682 162.602 425.754 155.426 421.897 150.07C418.041 144.5 412.793 140.001 406.151 136.573C399.724 133.145 392.226 130.146 383.657 127.575C375.302 125.005 366.519 122.112 357.307 118.899C339.954 112.9 327.1 105.509 318.745 96.7259C310.39 87.7282 306.212 76.0525 306.212 61.6989C305.998 49.7019 308.783 39.0974 314.567 29.8854C320.352 20.4592 328.492 13.1753 338.99 8.0337C349.701 2.6779 362.341 0 376.909 0C391.262 0 403.688 2.6779 414.185 8.0337C424.897 13.3895 433.145 20.7805 438.929 30.2068C444.16 38.4281 447.192 47.6272 448.024 57.804C448.227 60.2919 446.2 62.3416 443.704 62.3416H424.432C421.967 62.3416 419.998 60.3359 419.692 57.89C419.106 53.2063 417.592 48.5846 415.149 44.0247C411.936 37.812 407.008 32.7776 400.367 28.9214C393.94 25.0652 385.799 23.1371 375.945 23.1371C363.733 22.9229 353.665 26.0292 345.738 32.4562C338.026 38.8832 334.17 47.7738 334.17 59.1282C334.17 68.7686 336.847 76.1596 342.203 81.3012C347.773 86.4428 355.486 90.7274 365.34 94.1551C375.195 97.3686 386.549 101.118 399.403 105.402C410.115 109.259 419.755 113.757 428.324 118.899C436.894 124.041 443.535 130.682 448.248 138.823C453.175 146.963 455.639 157.354 455.639 169.993C455.639 180.705 452.854 190.881 447.284 200.522C441.714 209.948 433.252 217.66 421.897 223.659C410.757 229.657 396.725 232.656 379.801 232.656Z" fill="white"/>
</svg>
