<?xml version="1.0" encoding="UTF-8"?>
<svg id="Layer_2" xmlns="http://www.w3.org/2000/svg" viewBox="0 0 205.09 46">
  <defs>
    <style>
      .cls-1 {
        fill: #fff;
      }
    </style>
  </defs>
  <g id="Layer_1-2" data-name="Layer_1">
    <g id="Layer_2-2" data-name="Layer_2">
      <path class="cls-1" d="M18.4,46V0h4.6v46h-4.6ZM13.8,46V0h2.3v46h-2.3ZM0,46V0h6.9v46H0Z"/>
      <path class="cls-1" d="M197.57,34.32c-1.56,0-2.93-.36-4.13-1.09-1.19-.75-2.13-1.76-2.82-3.04-.68-1.28-1.02-2.75-1.02-4.42s.33-3.13.99-4.38c.68-1.28,1.63-2.27,2.85-2.98,1.22-.7,2.61-1.06,4.19-1.06s2.83.33,3.94.99c1.13.66,1.99,1.59,2.59,2.78.62,1.19.93,2.6.93,4.22,0,.21-.01.42-.03.61,0,.19-.02.41-.06.64h-13.47v-2.14h11.9l-.83,1.18c0-1.96-.44-3.47-1.31-4.51-.85-1.07-2.07-1.6-3.65-1.6s-2.93.57-3.94,1.7c-.98,1.11-1.47,2.61-1.47,4.51s.49,3.5,1.47,4.67c1,1.15,2.34,1.73,4,1.73,1.05,0,1.96-.22,2.75-.67.79-.47,1.37-1.13,1.73-1.98h2.43c-.53,1.49-1.43,2.68-2.69,3.55-1.24.85-2.69,1.28-4.35,1.28ZM178.7,32.08c1.64,0,2.92-.55,3.84-1.66.94-1.13,1.41-2.67,1.41-4.61s-.47-3.4-1.41-4.51-2.22-1.66-3.84-1.66-2.89.55-3.81,1.66-1.38,2.65-1.38,4.61.46,3.43,1.38,4.54c.92,1.09,2.19,1.63,3.81,1.63ZM183.98,34v-3.81l.32.1c-.41,1.24-1.15,2.22-2.24,2.94-1.07.73-2.35,1.09-3.84,1.09s-2.76-.35-3.87-1.06c-1.09-.7-1.94-1.69-2.56-2.94-.6-1.26-.9-2.73-.9-4.42s.31-3.2.93-4.48c.62-1.28,1.48-2.27,2.59-2.98,1.11-.7,2.41-1.06,3.9-1.06s2.83.37,3.87,1.12c1.05.75,1.76,1.8,2.14,3.17l-.51.06v-10.78h2.56v23.04h-2.4ZM160,32.08c1.64,0,2.92-.55,3.84-1.66.94-1.13,1.41-2.67,1.41-4.61s-.47-3.4-1.41-4.51-2.22-1.66-3.84-1.66-2.89.55-3.81,1.66-1.38,2.65-1.38,4.61.46,3.43,1.38,4.54c.92,1.09,2.19,1.63,3.81,1.63ZM159.52,34.32c-1.47,0-2.76-.35-3.87-1.06-1.09-.7-1.94-1.69-2.56-2.94-.6-1.26-.9-2.73-.9-4.42s.31-3.2.93-4.48,1.48-2.27,2.59-2.98c1.11-.7,2.41-1.06,3.9-1.06s2.83.37,3.87,1.12c1.05.75,1.76,1.8,2.14,3.17l-.35.06v-4.06h2.4v16.32h-2.4v-3.81l.32.1c-.41,1.24-1.15,2.22-2.24,2.94-1.07.73-2.35,1.09-3.84,1.09ZM145.14,25.49l-.42-3.87c.38-1.39,1.07-2.44,2.05-3.17s2.11-1.09,3.39-1.09c.53,0,.9.04,1.09.13v2.46c-.11-.04-.26-.06-.45-.06-.19-.02-.43-.03-.7-.03-1.62,0-2.86.49-3.71,1.47-.83.96-1.25,2.35-1.25,4.16ZM142.58,34v-16.32h2.4v4.16h.16v12.16h-2.56ZM129.14,19.86v-2.18h10.78v2.18h-10.78ZM137.69,34.29c-1.81,0-3.14-.41-3.97-1.22-.81-.83-1.22-2.03-1.22-3.58v-15.62l2.56-.96v16.54c0,.92.23,1.59.7,2.02s1.24.64,2.3.64c.43,0,.79-.02,1.09-.06.32-.06.58-.14.77-.22v2.18c-.21.09-.52.15-.93.19-.38.06-.82.1-1.31.1ZM127.43,34.32c-.53,0-.98-.17-1.34-.51-.34-.34-.51-.79-.51-1.34s.17-.97.51-1.31c.36-.34.81-.51,1.34-.51.49,0,.92.17,1.28.51s.54.78.54,1.31-.18,1-.54,1.34c-.36.34-.79.51-1.28.51ZM115.12,32.08c1.64,0,2.92-.55,3.84-1.66.94-1.13,1.41-2.67,1.41-4.61s-.47-3.4-1.41-4.51-2.22-1.66-3.84-1.66-2.89.55-3.81,1.66-1.38,2.65-1.38,4.61.46,3.43,1.38,4.54c.92,1.09,2.19,1.63,3.81,1.63ZM114.64,34.32c-1.47,0-2.76-.35-3.87-1.06-1.09-.7-1.94-1.69-2.56-2.94-.6-1.26-.9-2.73-.9-4.42s.31-3.2.93-4.48c.62-1.28,1.48-2.27,2.59-2.98,1.11-.7,2.41-1.06,3.9-1.06s2.83.37,3.87,1.12c1.05.75,1.76,1.8,2.14,3.17l-.35.06v-4.06h2.4v16.32h-2.4v-3.81l.32.1c-.41,1.24-1.15,2.22-2.24,2.94-1.07.73-2.35,1.09-3.84,1.09ZM100.26,25.49l-.42-3.87c.38-1.39,1.07-2.44,2.05-3.17.98-.73,2.11-1.09,3.39-1.09.53,0,.9.04,1.09.13v2.46c-.11-.04-.26-.06-.45-.06-.19-.02-.43-.03-.7-.03-1.62,0-2.86.49-3.71,1.47-.83.96-1.25,2.35-1.25,4.16ZM97.7,34v-16.32h2.4v4.16h.16v12.16h-2.56ZM86.62,32.05c1.62,0,2.89-.55,3.81-1.66.92-1.13,1.38-2.67,1.38-4.61s-.46-3.42-1.38-4.51c-.92-1.11-2.19-1.66-3.81-1.66s-2.9.57-3.84,1.7c-.94,1.11-1.41,2.63-1.41,4.58s.47,3.4,1.41,4.51,2.22,1.66,3.84,1.66ZM87,34.29c-1.54,0-2.83-.37-3.87-1.12s-1.76-1.8-2.14-3.17l.35-.06v4.06h-2.4V10.96h2.56v10.53l-.35-.1c.41-1.26,1.14-2.24,2.21-2.94,1.09-.73,2.38-1.09,3.87-1.09s2.71.35,3.78,1.06c1.09.7,1.93,1.69,2.53,2.94s.9,2.73.9,4.42-.31,3.2-.93,4.48c-.62,1.28-1.48,2.27-2.59,2.98-1.11.7-2.41,1.06-3.9,1.06ZM68.2,34.32c-1.56,0-2.93-.36-4.13-1.09-1.19-.75-2.13-1.76-2.82-3.04-.68-1.28-1.02-2.75-1.02-4.42s.33-3.13.99-4.38c.68-1.28,1.63-2.27,2.85-2.98,1.22-.7,2.61-1.06,4.19-1.06s2.83.33,3.94.99c1.13.66,1.99,1.59,2.59,2.78.62,1.19.93,2.6.93,4.22,0,.21-.01.42-.03.61,0,.19-.02.41-.06.64h-13.47v-2.14h11.9l-.83,1.18c0-1.96-.44-3.47-1.31-4.51-.85-1.07-2.07-1.6-3.65-1.6s-2.93.57-3.94,1.7c-.98,1.11-1.47,2.61-1.47,4.51s.49,3.5,1.47,4.67c1,1.15,2.34,1.73,4,1.73,1.05,0,1.96-.22,2.75-.67.79-.47,1.37-1.13,1.73-1.98h2.43c-.53,1.49-1.43,2.68-2.69,3.55-1.24.85-2.69,1.28-4.35,1.28ZM52.47,26.58l-5.54,7.42h-2.91l7.2-9.25,1.25,1.82ZM51.38,24.82l5.12-7.14h2.88l-6.66,8.86-1.34-1.73ZM56.63,34l-5.41-7.58-6.46-8.74h2.98l4.99,7.01,6.88,9.31h-2.98Z"/>
    </g>
  </g>
</svg>